PathFileType	4	(X/Y/Z)	./resultDataOpenSim/trcMotMarkerGrf/sub09/qtm-15-01.trc
DataRate	CameraRate	NumFrames	NumMarkers	Units	OrigDataRate	OrigDataStartFrame	OrigNumFrames
250.000000	250.000000	11	24	m	250.000000	128	508
Frame#	Time	L.Toe.Tip			R.Toe.Tip			L.Ankle.Lat			R.Ankle.Lat			L.Ankle.Med			R.Ankle.Med			L.Heel			R.Heel			L.Knee.Lat			R.Knee.Lat			L.Knee.Med			R.Knee.Med			L.Thigh.Upper			R.Thigh.Upper			L.ASIS			R.ASIS			V.Sacral			L.Acromium			R.Acromium			C7			L.Elbow			R.Elbow			L.Wrist.Lat			R.Wrist.Lat
		X1	Y1	Z1	X2	Y2	Z2	X3	Y3	Z3	X4	Y4	Z4	X5	Y5	Z5	X6	Y6	Z6	X7	Y7	Z7	X8	Y8	Z8	X9	Y9	Z9	X10	Y10	Z10	X11	Y11	Z11	X12	Y12	Z12	X13	Y13	Z13	X14	Y14	Z14	X15	Y15	Z15	X16	Y16	Z16	X17	Y17	Z17	X18	Y18	Z18	X19	Y19	Z19	X20	Y20	Z20	X21	Y21	Z21	X22	Y22	Z22	X23	Y23	Z23	X24	Y24	Z24

128	0.508	-0.075683003	0.12307405	-0.033748456	-0.63003315	0.038802257	0.076764134	-0.2322659	0.10666654	-0.060694699	-0.77817825	0.05930597	0.10357192	-0.20547531	0.13289485	0.031885027	-0.7589222	0.09481072	0.011886605	-0.27722031	0.048634314	-0.00061108299	-0.84486624	0.036336981	0.050895745	-0.34517013	0.50852197	-0.1046416	-0.62601066	0.49084663	0.16970332	-0.34373655	0.5048651	0.022564867	-0.64130629	0.48410945	0.040863485	-0.54049092	0.88147093	-0.1458451	-0.58516105	0.89307013	0.22483423	-0.47136767	0.96865536	-0.081576075	-0.47385441	0.97546878	0.16126903	-0.6382993	1.0271151	0.030661618	-0.48298404	1.4171024	-0.13892259	-0.4924329	1.4409984	0.19018631	-0.55053282	1.47941	0.024798808	-0.64498798	1.0918563	-0.19411584	-0.61742737	1.104934	0.30275042	-0.54154756	0.84874806	-0.22032829	-0.45536474	0.88314982	0.30696763
129	0.512	-0.061141946	0.12631051	-0.032881121	-0.63000779	0.038771879	0.076922729	-0.21767881	0.10747847	-0.060233987	-0.77819603	0.059462032	0.10354842	-0.19129265	0.13430364	0.032347273	-0.75860208	0.094942092	0.011860569	-0.26160491	0.048842547	-3.7131093e-06	-0.84476192	0.03664815	0.050486399	-0.33827661	0.50687671	-0.10413432	-0.62370628	0.49036741	0.17001629	-0.33744497	0.50320409	0.022832644	-0.63881724	0.48362205	0.041209001	-0.53436789	0.87942332	-0.14567961	-0.57961354	0.8921015	0.22481165	-0.4652337	0.96692807	-0.081544838	-0.46796596	0.97425805	0.16135238	-0.63230392	1.0253972	0.030420688	-0.47731042	1.415571	-0.13905548	-0.48693085	1.4394325	0.19010235	-0.54495492	1.4779327	0.024680824	-0.63926145	1.0903467	-0.1942195	-0.61153817	1.1032166	0.30270516	-0.53615169	0.84710923	-0.22057679	-0.4493243	0.88160847	0.30698892
130	0.516	-0.047011634	0.12951352	-0.032023512	-0.62998079	0.038741971	0.077069494	-0.20343391	0.10833224	-0.059907685	-0.77820384	0.059665896	0.10349064	-0.17754537	0.1356344	0.032763103	-0.75828661	0.095053762	0.01177262	-0.24639523	0.049030969	0.0004971307	-0.84465589	0.036990945	0.050096369	-0.33132176	0.5052553	-0.10364693	-0.62124069	0.48988103	0.17030968	-0.33102206	0.50156968	0.023196219	-0.63617587	0.48314672	0.041461413	-0.52819372	0.87732231	-0.1455713	-0.57402237	0.89107212	0.22476319	-0.45908813	0.96516648	-0.081543654	-0.4620378	0.97298885	0.16140902	-0.62623076	1.0236556	0.030347405	-0.47162499	1.4139959	-0.13920599	-0.48140779	1.4378182	0.19000157	-0.53938618	1.4764297	0.024561587	-0.63350399	1.0887845	-0.19435063	-0.60562434	1.1014528	0.3026425	-0.53070665	0.84542517	-0.2208504	-0.44327452	0.88000763	0.30699429
131	0.52	-0.033326703	0.13265867	-0.03120899	-0.62995146	0.038709196	0.077202179	-0.18950845	0.10921858	-0.059706013	-0.77819066	0.059899449	0.1033813	-0.16425887	0.13685407	0.033133993	-0.75797402	0.095144488	0.011627578	-0.23162114	0.049182941	0.0008123902	-0.84458195	0.037368887	0.049833575	-0.32435956	0.50365091	-0.10321748	-0.61864181	0.48935628	0.17056243	-0.32440888	0.4999843	0.023680007	-0.63333818	0.48267712	0.041634322	-0.52196825	0.87517891	-0.14550224	-0.56838809	0.8899726	0.22469548	-0.45292695	0.9633693	-0.081573582	-0.45608424	0.97165637	0.16143639	-0.61999906	1.0219098	0.030616764	-0.46592727	1.4123765	-0.13936295	-0.47586548	1.4361515	0.18988207	-0.53380369	1.4748786	0.024431415	-0.62762342	1.0871443	-0.19462331	-0.59968122	1.0996456	0.30256141	-0.52521324	0.84370306	-0.22115071	-0.43721301	0.87834074	0.3069906
132	0.524	-0.02010525	0.1357159	-0.030440087	-0.62991622	0.038672471	0.077314297	-0.17587242	0.11014233	-0.059615736	-0.77821881	0.060214613	0.10318001	-0.15144158	0.13794312	0.033462305	-0.75764214	0.095250474	0.011455796	-0.2173105	0.049299349	0.0007684972	-0.84453873	0.037789191	0.049679352	-0.3173515	0.50207124	-0.10282947	-0.61592707	0.48877399	0.17075857	-0.31762356	0.4984553	0.024244411	-0.63032384	0.48217896	0.041811117	-0.5156872	0.87300633	-0.14545035	-0.56271766	0.88880272	0.22461901	-0.44673996	0.96154062	-0.081625625	-0.45011265	0.97025578	0.16143532	-0.61358994	1.0201616	0.031240618	-0.46021678	1.4107147	-0.13952299	-0.47029172	1.4344333	0.18974111	-0.52818727	1.4732608	0.024282083	-0.62161977	1.0854234	-0.19504956	-0.59370186	1.097797	0.30246091	-0.51966865	0.84195137	-0.22147799	-0.43113811	0.87660886	0.30698629
133	0.528	-0.0073527109	0.13863831	-0.029704388	-0.62986825	0.038626999	0.077397019	-0.16253039	0.11110429	-0.059628532	-0.77832139	0.060652955	0.10284517	-0.13908312	0.1388994	0.033749177	-0.75728216	0.095416427	0.011267169	-0.20344566	0.049376522	0.00022708623	-0.84448811	0.038258033	0.049487408	-0.31024004	0.50053009	-0.10245949	-0.61308932	0.48812876	0.17090089	-0.31067252	0.49697099	0.024859899	-0.6272603	0.48163053	0.042018159	-0.50934631	0.87080946	-0.14540089	-0.55702033	0.88756681	0.22454122	-0.4405216	0.95968464	-0.081690414	-0.44411543	0.96878647	0.1614138	-0.6071048	1.0183851	0.031957832	-0.45449444	1.4090131	-0.13969298	-0.46467677	1.43267	0.18958189	-0.52253792	1.471576	0.024115195	-0.61562475	1.0836544	-0.19548795	-0.58768578	1.0959131	0.30234252	-0.51406898	0.84017476	-0.22183158	-0.42505432	0.87482514	0.30698238
134	0.532	0.0049360019	0.14137095	-0.028991351	-0.62979432	0.038561566	0.07743752	-0.14955612	0.11206854	-0.059722154	-0.77840735	0.061121399	0.10241664	-0.12715261	0.13973366	0.033985698	-0.75690547	0.09566391	0.011041755	-0.18998264	0.049408925	-0.00079231776	-0.84440181	0.038776373	0.049147496	-0.30303836	0.49902314	-0.10210686	-0.61010607	0.48741943	0.17100179	-0.30359368	0.49548912	0.025495751	-0.62423139	0.4810331	0.042222747	-0.50294289	0.86858557	-0.14534943	-0.55130167	0.88626725	0.22446379	-0.43427487	0.95780307	-0.081764313	-0.43808847	0.96725215	0.16138183	-0.60069434	1.0165505	0.032438185	-0.44876055	1.4072759	-0.13988273	-0.45902241	1.4308691	0.18940885	-0.51687721	1.4698383	0.023946868	-0.60974328	1.0818694	-0.19579947	-0.58163734	1.0939998	0.30220896	-0.50841001	0.83837528	-0.22220872	-0.41896307	0.87300337	0.30697154
135	0.536	0.016776463	0.14387229	-0.02829766	-0.62968087	0.038467309	0.077421453	-0.13705544	0.11295259	-0.059845981	-0.77830698	0.061429045	0.10200344	-0.11560822	0.1404567	0.034155428	-0.75649973	0.09598197	0.010770708	-0.1769335	0.049393419	-0.0020395385	-0.84428062	0.03934084	0.04865034	-0.2957987	0.49753658	-0.10178383	-0.60695995	0.48664693	0.1710663	-0.29651246	0.49394991	0.026080915	-0.62118409	0.48039163	0.042395166	-0.49646603	0.866335	-0.14529617	-0.54556138	0.88490254	0.2243842	-0.42800413	0.95589617	-0.081845119	-0.43204239	0.96565741	0.16134767	-0.59442489	1.0146548	0.032567226	-0.44301395	1.4055099	-0.14009677	-0.45333426	1.4290352	0.18921954	-0.51123313	1.4680662	0.023801452	-0.60394565	1.0800707	-0.19598495	-0.57556203	1.0920585	0.30206335	-0.50268951	0.8365546	-0.22260759	-0.41285709	0.87114873	0.30694677
136	0.54	0.028178704	0.14611394	-0.027634263	-0.62953207	0.03835121	0.077351179	-0.12509115	0.11366533	-0.059949314	-0.77796714	0.061516479	0.10164287	-0.10442809	0.14106851	0.034259964	-0.75601569	0.096335889	0.010472465	-0.16440239	0.049310614	-0.0030842324	-0.8441346	0.039945719	0.048025685	-0.28854022	0.49607215	-0.10150107	-0.60365366	0.48581404	0.1710891	-0.2895167	0.49232145	0.0265529	-0.61802246	0.47970108	0.042520818	-0.48990144	0.86406445	-0.14524364	-0.53979802	0.88346968	0.22429869	-0.42171033	0.95396451	-0.081926601	-0.42599123	0.96400806	0.16131904	-0.5882502	1.012713	0.032456908	-0.43725286	1.4037198	-0.14033401	-0.44761348	1.4271713	0.18901073	-0.50561218	1.4662762	0.023686454	-0.59814755	1.0782453	-0.19613419	-0.56946347	1.0900891	0.30190875	-0.49690966	0.83471593	-0.22302995	-0.40673239	0.86926176	0.30690747
137	0.544	0.03913226	0.14806355	-0.027024362	-0.62937371	0.038234797	0.077254096	-0.11367333	0.11415612	-0.060008125	-0.7775195	0.061536601	0.1012609	-0.093630238	0.14155783	0.034334448	-0.75542304	0.09669188	0.010166276	-0.152507	0.049123052	-0.003585001	-0.84397064	0.040587744	0.047315843	-0.2812365	0.49465425	-0.10126396	-0.60020421	0.48492398	0.17106713	-0.2825559	0.4906229	0.026904359	-0.61470062	0.47894842	0.042579381	-0.48324601	0.86178295	-0.14519949	-0.53401604	0.88197039	0.22420699	-0.41539357	0.95200861	-0.082000078	-0.41994469	0.96231096	0.16130301	-0.58209232	1.0107428	0.032268271	-0.43147821	1.4019059	-0.1405922	-0.44185746	1.4252811	0.18878661	-0.49997002	1.4644774	0.023562459	-0.59230537	1.0763867	-0.19631449	-0.56334294	1.0880945	0.30174672	-0.49107336	0.83286453	-0.22347831	-0.40059315	0.86734325	0.30685938
138	0.548	0.049613752	0.14967508	-0.026489425	-0.62923024	0.03813453	0.077157965	-0.10280351	0.11441788	-0.06001359	-0.77710803	0.06165798	0.10079923	-0.08324989	0.14190729	0.034426838	-0.75474527	0.097036137	0.0098559093	-0.14128124	0.048810881	-0.0035450796	-0.84379532	0.041272619	0.046585091	-0.27384308	0.49332086	-0.10107376	-0.59662606	0.48397698	0.17100561	-0.27551815	0.48890422	0.027152906	-0.61120597	0.47811911	0.042539255	-0.47651121	0.85949848	-0.14516789	-0.52822924	0.88041374	0.22411227	-0.40905464	0.95002994	-0.082059568	-0.41390376	0.96056989	0.1613044	-0.57590811	1.0087613	0.032097218	-0.4256961	1.4000687	-0.14087161	-0.43606967	1.4233689	0.1885524	-0.49423122	1.4626669	0.023355102	-0.58642102	1.0744989	-0.19653421	-0.5572037	1.0860805	0.3015759	-0.4851797	0.83100389	-0.22395425	-0.39444355	0.8653966	0.30681213
